<svg width="34" height="19" xmlns="http://www.w3.org/2000/svg"><g transform="translate(.344)" fill="none"><ellipse fill="#FFF" cx="16.447" cy="9.421" rx="16.223" ry="8.89"/><path d="M.83 9.42C.83 4.639 7.82.758 16.446.758s15.618 3.877 15.618 8.664c0 4.783-6.991 8.663-15.618 8.663C7.821 18.084.83 14.204.83 9.421z" fill="#023C91"/><path d="M17.74 14.224h-7.097l-.256-1.28h-2.74l-.395 1c2.146 1.693 5.467 2.781 9.2 2.781 3.518 0 6.673-.968 8.82-2.497h-3.49l-.453-5.911h-.902l.16 3.015h-2.846v2.892zM7.409 4.786h4.552l1.57 4.828.135-4.824H25.49c-1.355-1.026-3.147-1.812-5.195-2.257v.774h-1.203v-.993a18.132 18.132 0 00-.964-.111v1.763H16.93V2.133c-.16-.004-.321-.008-.482-.008-.16 0-.321.004-.482.008v1.833h-1.203V2.2c-.325.029-.647.066-.964.111v.997h-1.203v-.779c-2.043.445-3.835 1.236-5.186 2.258zm17.896 1.467l.572 4.457h2.101c.12-.416.182-.844.182-1.285 0-1.368-.602-2.645-1.652-3.737l-1.203.565zM7.244 6.13l-.89-.405C5.328 6.81 4.739 8.078 4.739 9.43c0 .227.016.445.05.667L7.243 6.13z" fill="#F0001B"/><path d="M29.519 13.203h-7.197L21.7 5.268h4.354l-2.233.96h.91l.635 4.972h3.68l.473 2.003zm-9.698-4.676l.095 1.742h-2.92v2.934h-5.9l-.289-1.265h-3.53l-.643 1.265H3.491l4.325-6.975h.977l-2.08-.956h4.786l2.402 7.168h.1l.234-7.168h6.88l.148 1.94h-4.268v1.315h2.826z" fill="#FFF"/><path fill="#023C91" d="M9.76 7.336H9.6l-1.586 3.156h2.464z"/><path d="M16.447 1.354c-7.098 0-12.853 3.613-12.853 8.067 0 .68.136 1.339.387 1.969l.614-.993a5.084 5.084 0 01-.095-.972c0-3.498 3.597-6.452 8.528-7.403v.86h.342V1.96a18.252 18.252 0 011.82-.218v1.8h.343V1.72c.3-.016.605-.02.91-.02.305 0 .61.008.91.02v1.82h.342v-1.8c.623.042 1.232.116 1.821.219v.923h.342v-.861c4.932.951 8.528 3.905 8.528 7.403 0 .437-.058.865-.165 1.285h.91a5.15 5.15 0 00.166-1.29c.004-4.453-5.752-8.066-12.85-8.066zm0 15.796c-3.786 0-7.156-1.138-9.347-2.913h-.964c2.344 1.973 6.089 3.254 10.311 3.254 4.231 0 7.98-1.281 10.324-3.263h-.968c-2.187 1.78-5.566 2.921-9.356 2.921zm11.478-3.618a.544.544 0 01.548.556.53.53 0 01-.161.38.564.564 0 01-.387.16.553.553 0 01-.388-.165.536.536 0 01-.156-.383c0-.144.058-.284.165-.391a.498.498 0 01.379-.157zm-.004-.107a.631.631 0 00-.557.313.661.661 0 00.091.8.642.642 0 00.466.197.672.672 0 00.465-.19.64.64 0 00.194-.465.655.655 0 00-.186-.461.656.656 0 00-.473-.194zm-.272.276v.73h.177v-.297h.086l.14.296h.198l-.165-.325c.1-.025.161-.099.161-.194 0-.14-.103-.21-.313-.21h-.284zm.177.111h.078c.107 0 .16.033.16.107 0 .075-.049.103-.152.103h-.086v-.21z" fill="#FFF"/></g></svg>