<svg id="Artwork" xmlns="http://www.w3.org/2000/svg" version="1.1" viewBox="0 0 280.4 186"><defs><style>.st0{fill:#fff}</style></defs><path class="st0" d="M45.6 103.5v16.3H56v9.7H45.6v22.3H33.5v-58h23.3v9.7H45.6zM76 139.9h-6.3l-1.2 11.9H56.6l9.6-58h13.7l9.6 58H77.2l-1.1-11.9zm-.9-9.7L73 108.5l-2.3 21.7h4.4zm16.8-36.4h11.5l7.4 31.8-.4-31.8h12v58h-11.5l-7.9-30.7 1 30.7H92v-58zm58.9 9.7H144v48.3h-12.1v-48.3h-6.8v-9.7h25.7v9.7zm17.7 36.4h-6.3l-1.2 11.9h-11.9l9.6-58h13.7l9.6 58h-12.3l-1.1-11.9zm-1-9.7l-2.1-21.7-2.3 21.7h4.4zm33.1-16.8v-9.9c0-1-.6-1.4-2.3-1.4s-2.3.4-2.3 1.4v8.8c0 6.8 16.8 7.1 16.8 19.7v9.9c0 6.7-2.6 10.6-14.5 10.6s-14.5-4-14.5-10.7v-9.7h12.1v9.9c0 1 .6 1.4 2.4 1.4s2.4-.4 2.4-1.4v-8.8c0-6.8-16.8-7.1-16.8-19.7v-9.9c0-6.7 2.7-10.6 14.4-10.6s14.4 4 14.4 10.7v9.7h-12.1zm36.2 22v16.3h-12.1v-16.3l-10.2-41.6h12.3l3.9 25.5 4.2-25.5h12l-10.1 41.6zM140.2 33.5c-22.5 0-40.7 10-40.7 22.3s18.2 22.3 40.7 22.3 40.7-10 40.7-22.3-18.2-22.3-40.7-22.3zm0 44.1c-21.7 0-39.2-9.7-39.2-21.8S118.6 34 140.2 34s39.2 9.7 39.2 21.8-17.6 21.8-39.2 21.8z"/><path class="st0" d="M140.2 35.6c17.8 0 32.3 9.1 32.3 20.3s-.1 2.2-.4 3.2h-2.3c.3-1 .4-2.1.4-3.2 0-8.8-9-16.2-21.4-18.6v2.2h-.9v-2.3c-1.5-.3-3-.4-4.6-.5v4.5h-.9v-4.6h-4.6v4.6h-.9v-4.5c-1.6.1-3.1.3-4.6.5v2.3h-.9v-2.2C119 39.7 110 47.1 110 55.9s0 1.6.2 2.4l-1.5 2.5c-.6-1.6-1-3.2-1-4.9 0-11.2 14.5-20.3 32.3-20.3m.2 40.5c-10.6 0-20-3.2-25.9-8.2h2.4c5.5 4.5 14 7.3 23.5 7.3s18-2.9 23.5-7.3h2.4c-5.9 5-15.3 8.2-25.9 8.2"/><path class="st0" d="M154.9 65.3l-1.6-19.9h10.9l-5.6 2.4h2.3l1.6 12.5h9.2l1.2 5h-18.1zm-36.4-17.5h2.4l-5.2-2.4h12l6 18h.2l.6-18h17.3l.4 4.9h-10.7v3.3h7.1l.2 4.4h-7.3v7.4h-14.8l-.7-3.2h-8.9l-1.6 3.2h-7.9l10.9-17.5zm4.9 2.8h-.4l-4 7.9h6.2l-1.8-7.9zm46.8 15.7c-.3-.3-.7-.5-1.2-.5s-1.1.3-1.4.8c-.2.3-.2.6-.2.9 0 .4.2.8.5 1.1.3.3.7.5 1.2.5s.8-.2 1.2-.5c.3-.3.5-.7.5-1.2s-.2-.8-.5-1.2zm-.2 2.2c-.3.3-.6.4-1 .4s-.7-.2-1-.4c-.3-.3-.4-.6-.4-1s.1-.7.4-1c.3-.3.6-.4 1-.4s.7.1 1 .4c.3.3.4.6.4 1s-.1.7-.4.9z"/><path class="st0" d="M169 66.8c.3 0 .4 0 .4.3s-.1.3-.4.3h-.2v-.5h.2m.8 1.5l-.4-.8c.3 0 .4-.2.4-.5 0-.4-.3-.5-.8-.5h-.7v1.8h.4v-.7h.2l.4.7h.5z"/></svg>