<svg width="53" height="30" fill="none" xmlns="http://www.w3.org/2000/svg"><g clip-path="url(#clip0_1_29910)"><path fill-rule="evenodd" clip-rule="evenodd" d="M26.72.42C12.19.42.41 6.949.41 15.007c0 8.055 11.78 14.583 26.31 14.583 14.531 0 26.31-6.528 26.31-14.583C53.03 6.949 41.252.42 26.72.42zm.001.425C12.614.845 1.177 7.184 1.177 15.007c0 7.82 11.437 14.159 25.544 14.159 14.107 0 25.543-6.338 25.543-14.159C52.264 7.184 40.828.845 26.721.845zm5.67 15.549l-.152-2.853h-4.626v-2.148h6.973l-.245-3.17h-11.25l-.382 11.722h-.16L18.618 8.223h-7.827l3.403 1.562h-1.596L5.526 21.19h5.144l1.05-2.07h5.774l.476 2.07h9.643v-4.795h4.777zm3.937 4.796h11.775l-.776-3.271h-6.019l-1.04-8.13h-1.486l3.652-1.57h-7.125l1.02 12.97zm-20.807-9.592h.259l1.173 5.156H12.93l2.592-5.156zm-9.824 3.409c0-7.286 9.413-13.19 21.024-13.19 11.61 0 21.022 5.904 21.022 13.19 0 .717-.09 1.42-.267 2.108h-1.488a8.426 8.426 0 00.273-2.1c0-5.72-5.884-10.551-13.95-12.104v1.405h-.56V2.808a28.717 28.717 0 00-2.98-.353v2.94h-.562V2.42a29.819 29.819 0 00-1.488-.036c-.502 0-1 .012-1.49.036v2.974h-.561v-2.94a28.62 28.62 0 00-2.98.353v1.508h-.561V2.911C13.064 4.464 7.183 9.294 7.183 15.014c0 .538.053 1.066.154 1.588l-1.008 1.622a8.598 8.598 0 01-.632-3.217zM26.721 27.64c-6.192 0-11.707-1.863-15.288-4.765H9.85c3.833 3.226 9.962 5.319 16.87 5.319 6.917 0 13.056-2.097 16.884-5.333h-1.58c-3.578 2.913-9.105 4.78-15.304 4.78zm18.806-5.39h-.137v.372h.152c.18 0 .265-.054.265-.182 0-.13-.092-.19-.28-.19zm-.448 1.086v-1.284h.502c.368 0 .549.124.549.37 0 .17-.106.296-.28.34l.287.574h-.348l-.247-.526h-.152v.526h-.311zm-.503-1.218a1.11 1.11 0 01.978-.555c.321 0 .611.12.834.345.212.213.327.5.327.81 0 .319-.12.604-.34.82a1.174 1.174 0 01-.82.338c-.308 0-.597-.126-.819-.351a1.146 1.146 0 01-.328-.807c0-.207.051-.407.168-.6zm1.676-.08a.954.954 0 00-.694-.284c-.261 0-.49.09-.67.269a.993.993 0 00-.29.69c0 .256.093.496.274.678a.953.953 0 00.682.293.997.997 0 00.687-.285.927.927 0 00.285-.666.963.963 0 00-.274-.694z" fill="#fff"/></g><defs><clipPath id="clip0_1_29910"><path fill="#fff" d="M0 0h53v30H0z"/></clipPath></defs></svg>