<svg width="156" height="100" fill="none" xmlns="http://www.w3.org/2000/svg"><path fill-rule="evenodd" clip-rule="evenodd" d="M55.23 96.47c1.28 2.183 3.598 3.402 5.985 3.402 2.388 0 4.702-1.219 5.982-3.401L79.85 74.91l12.648 21.56c1.28 2.182 3.595 3.4 5.984 3.4 2.388 0 4.702-1.218 5.985-3.4l50.608-86.264c1.904-3.252.776-7.415-2.531-9.295-3.31-1.878-7.534-.764-9.445 2.493L98.482 79.456l-10.65-18.152 29.976-51.097c1.907-3.252.776-7.415-2.532-9.295-3.309-1.878-7.537-.764-9.444 2.493L79.85 47.697 53.233 2.327H0l38.19 65.097-15.748 26.844a3.71 3.71 0 001.395 5.11c1.817 1.035 4.143.42 5.196-1.37L42.58 74.912 55.23 96.47zm92.273-39.052a3.692 3.692 0 015.056-1.364 3.733 3.733 0 011.353 5.083L132.658 98.14a3.69 3.69 0 01-5.053 1.361 3.731 3.731 0 01-1.354-5.08l21.252-37.003zM23.948 15.938l37.267 63.518 10.649-18.152-26.615-45.367H23.948zm129.361 78.89c-.949 0-1.763.465-2.23 1.233-.254.451-.384.893-.384 1.351 0 .667.261 1.315.754 1.804a2.595 2.595 0 001.86.784c.684 0 1.35-.264 1.856-.756.502-.48.781-1.122.781-1.832 0-.693-.273-1.326-.748-1.813a2.659 2.659 0 00-1.889-.772zm1.571 1.068a2.124 2.124 0 00-1.571-.65 2.12 2.12 0 00-1.516.613 2.186 2.186 0 00-.655 1.543c0 .569.204 1.112.612 1.518.423.423.981.658 1.559.658.565 0 1.121-.235 1.563-.64.4-.391.634-.933.634-1.495 0-.62-.204-1.129-.626-1.547zm-2.717 3.06v-2.853h1.166c.553 0 1.128.209 1.128.931 0 .487-.277.735-.621.846l.847 1.076h-.699l-.768-.996h-.446v.996h-.607zm1.148-1.509h-.589v-.803h.589c.255 0 .477.107.477.403 0 .287-.222.4-.477.4z" fill="#FF3B1D"/></svg>