<svg viewBox="0 0 28 32" xmlns="http://www.w3.org/2000/svg"><g fill="none"><path d="M18.743 14.083l-1.24 7.27c-.257 1.31-1.119 1.661-1.885 1.661H9.882L12.302 9.7C9.889 8.595 7.422 7.875 5.46 7.875c-1.868 0-3.384.506-4.393 1.712C.356 10.448 0 11.51 0 12.771c0 3.786 2.98 9.037 8.085 13.322C12.632 29.878 17.637 32 21.277 32c1.817 0 3.281-.557 4.246-1.664.756-.858 1.06-1.971 1.06-3.232 0-3.68-3.002-8.835-7.84-13.02z" fill="#F96449"/><path d="M8.44 0c-.91 0-1.666.611-1.868 1.568l-.807 4.387h7.213L9.879 23.011h5.74c.765 0 1.627-.355 1.883-1.66l2.625-15.396h5.19c.914 0 1.67-.605 1.872-1.565L28 0H8.44z" fill="#0D54FF"/></g></svg>