<svg width="120" height="120" xmlns="http://www.w3.org/2000/svg" xmlns:xlink="http://www.w3.org/1999/xlink"><defs><path d="M60 18.75c-13.143 0-26.437 2.696-31.912 5.724A3.658 3.658 0 0026.25 27.7v57.75c0 5.71 22.313 12.582 30.657 14.948 2.023.576 4.167.571 6.187-.013C71.42 97.98 93.75 91.009 93.75 85.449V27.7a3.658 3.658 0 00-1.837-3.225C86.438 21.446 73.144 18.75 60 18.75zm0 20.625c12.675 0 23.27 6.426 25.707 14.966a38.681 38.681 0 00-16.088-6.598v-.868a1.174 1.174 0 00-1.181-1.172 1.159 1.159 0 00-1.163 1.172v.499a53.931 53.931 0 00-3.28-.34v-.628a1.174 1.174 0 00-1.182-1.172 1.159 1.159 0 00-1.163 1.172v.522c-.562-.017-1.087-.053-1.65-.053-.562 0-1.087.036-1.63.053v-.522a1.181 1.181 0 00-2.363 0v.628a46.89 46.89 0 00-3.263.34v-.499a1.181 1.181 0 00-2.362 0v.868a38.681 38.681 0 00-16.088 6.598C36.732 45.801 47.325 39.375 60 39.375zm0 37.5c-14.493 0-26.25-8.394-26.25-18.75 0-.45.057-.89.094-1.333a41.117 41.117 0 0116.538-5.51V52.5a1.181 1.181 0 102.362 0V51a69.267 69.267 0 013.263-.257v1.286a1.181 1.181 0 102.362 0v-1.372c.544-.013 1.069-.036 1.631-.036.563 0 1.088.023 1.65.036v1.372a1.157 1.157 0 001.163 1.17 1.172 1.172 0 001.181-1.17v-1.286c1.106.06 2.194.146 3.281.257v1.5a1.157 1.157 0 001.163 1.172 1.174 1.174 0 001.181-1.172v-1.219a41.117 41.117 0 0116.538 5.51c.037.443.093.884.093 1.334 0 10.356-11.756 18.75-26.25 18.75z" id="a"/></defs><g fill="none"><circle fill="#CAD2D8" cx="60" cy="60" r="60"/><use fill="#F0F3F7" xlink:href="#a" opacity=".5"/></g></svg>