<svg width="200" height="102" fill="none" xmlns="http://www.w3.org/2000/svg"><path d="M200.001 0h-200v101.368h200V0z" fill="#fff"/><path d="M100.004 1.368H1.368V100h98.636V1.368z" fill="#C0FF00"/><path d="M198.633 1.368h-98.632V100h98.632V1.368zm-122.1 59.117h-.175v.473h.197c.227 0 .336-.068.336-.23 0-.172-.118-.243-.358-.243z" fill="#000"/><path d="M76.573 59.852c-.333 0-.623.116-.85.343-.237.24-.371.554-.371.879 0 .324.121.626.349.856.234.24.542.374.866.374.324 0 .63-.13.872-.361.23-.225.359-.53.359-.848a1.22 1.22 0 00-.346-.881 1.204 1.204 0 00-.879-.365v.003zm.293 2.01l-.311-.67h-.197v.67h-.395v-1.633h.638c.468 0 .698.16.698.47 0 .216-.134.378-.358.434l.364.729h-.442.003zM35.7 46.014h-.352l-3.555 7.069h5.514l-1.607-7.07z" fill="#000"/><path d="M50.685 31.278c-19.322 0-34.986 8.689-34.986 19.406 0 10.717 15.664 19.402 34.986 19.402 19.321 0 34.985-8.688 34.985-19.402S70.006 31.278 50.685 31.278zm0 1.334c15.9 0 28.792 8.09 28.792 18.072 0 .984-.128 1.947-.368 2.888h-2.037c.243-.935.37-1.898.37-2.879 0-7.838-8.059-14.458-19.11-16.586v1.95h-.769v-2.09a40.53 40.53 0 00-4.072-.486v3.997h-.769v-4.04a40.151 40.151 0 00-2.04-.05 44.1 44.1 0 00-2.041.05v4.04h-.77V33.48c-1.395.093-2.76.258-4.084.486v2.087h-.77v-1.947C31.975 36.237 23.92 42.855 23.92 50.69c0 .738.072 1.464.21 2.175l-1.38 2.224a11.837 11.837 0 01-.867-4.411c0-9.982 12.891-18.073 28.795-18.073l.007.007zM31.345 43.53h2.183l-4.66-2.143h10.72L44.97 57.45h.218l.523-16.062H61.12l.333 4.346h-9.548v2.944h6.333l.209 3.906h-6.542v6.57h-13.21l-.647-2.835h-7.91l-1.44 2.835h-7.043l9.685-15.623h.003zm19.34 25.225c-9.462 0-17.855-2.863-23.104-7.287h2.168C34.653 65.448 42.208 68 50.688 68s16.1-2.573 21-6.58h2.162c-5.243 4.45-13.667 7.337-23.162 7.337h-.003zm26.926-6.639c-.287.28-.66.43-1.04.43a1.473 1.473 0 01-1.244-2.237 1.424 1.424 0 011.243-.704 1.454 1.454 0 011.47 1.47c0 .393-.152.77-.433 1.041h.004zm-13.767-2.962l-1.396-17.77h9.758l-5.004 2.146h2.038l1.423 11.144h8.24l1.063 4.48H63.838h.006z" fill="#000"/><path d="M123.671 32.203h-9.343v36.961h7.723V55.273h1.62c7.449 0 9.066-2.449 9.066-7.094v-8.885c0-4.645-1.617-7.094-9.066-7.094v.003zm1.343 15.964c0 .666-.333.931-1.343.931h-1.62V38.384h1.62c1.01 0 1.343.287 1.343.932v8.854-.003zm27.456-15.964l-5.122 30.783h-5.536V32.204h-7.723v36.96h19.851l.791-7.564h4.016l.726 7.564h7.835l-6.118-36.96h-8.72zm2.906 23.22l1.449-13.845 1.33 13.844h-2.779zm21.281-23.22l-2.663 16.278-2.499-16.278h-7.879l6.505 26.543v10.418h7.726V58.746l6.462-26.543h-7.652z" fill="#fff"/></svg>