<svg xmlns="http://www.w3.org/2000/svg" fill="none" viewBox="0 0 21 24"><path fill-rule="evenodd" clip-rule="evenodd" d="M19.492 3.619a1.338 1.338 0 01-1.323 1.11h-3.684L12.624 15.7a1.292 1.292 0 01-1.337 1.185H7.218L9.415 4.728h-5.06l.57-3.115A1.338 1.338 0 016.25.5h13.82l-.578 3.119zM5.95 17.942h5.338a2.362 2.362 0 002.382-2.065l.778-4.585c2.971 2.875 4.78 6.204 4.78 8.641a3.438 3.438 0 01-.766 2.349 3.883 3.883 0 01-3.07 1.21c-2.634 0-6.253-1.541-9.544-4.294-3.69-3.113-5.846-6.93-5.846-9.681a3.513 3.513 0 01.77-2.311c.729-.878 1.826-1.245 3.176-1.245a11.442 11.442 0 014.004.923L5.95 17.942z" fill="#fff"/></svg>