<svg width="21" height="24" fill="none" xmlns="http://www.w3.org/2000/svg"><path fill-rule="evenodd" clip-rule="evenodd" d="M13.437 10.634l-4.62-3.146C7.087 6.696 5.32 6.18 3.914 6.18c-1.34 0-2.426.362-3.15 1.23C.256 8.027 0 8.788 0 9.693c0 2.717 2.138 6.487 5.796 9.563 3.26 2.72 6.847 4.24 9.457 4.24 1.303 0 2.355-.399 3.044-1.195.543-.615.76-1.415.76-2.32 0-2.64-2.153-6.34-5.62-9.347z" fill="color(display-p3 .9765 .3922 .2863)"/><path fill-rule="evenodd" clip-rule="evenodd" d="M6.05.5c-.652 0-1.195.437-1.34 1.126l-.578 3.149h5.172L7.084 17.02h4.113c.549 0 1.167-.254 1.35-1.193L14.43 4.775h3.72c.655 0 1.197-.435 1.342-1.122L20.07.5H6.052z" fill="color(display-p3 .051 .3294 1)"/></svg>